<svg viewBox="0 0 1200 700" xmlns="http://www.w3.org/2000/svg" preserveAspectRatio="xMidYMid slice">
  <!-- Temporary placeholder standing in for the hero photo.
       Upload your real photo as img/hero.jpg and update the
       .hero rule in style.css to use it instead. -->
  <defs>
    <linearGradient id="warm" x1="0" y1="0" x2="1" y2="1">
      <stop offset="0" stop-color="#F3E3C8"/>
      <stop offset="0.5" stop-color="#E0B27A"/>
      <stop offset="1" stop-color="#9C6534"/>
    </linearGradient>
    <radialGradient id="glow" cx="0.68" cy="0.4" r="0.5">
      <stop offset="0" stop-color="#FFF3D0" stop-opacity="0.9"/>
      <stop offset="1" stop-color="#FFF3D0" stop-opacity="0"/>
    </radialGradient>
  </defs>
  <rect width="1200" height="700" fill="url(#warm)"/>
  <circle cx="820" cy="280" r="330" fill="url(#glow)"/>
  <!-- abstract falling water -->
  <g fill="#BFE4F2" opacity="0.85">
    <rect x="805" y="120" width="9" height="60" rx="4"/>
    <rect x="826" y="200" width="8" height="74" rx="4"/>
    <rect x="795" y="300" width="9" height="60" rx="4"/>
    <rect x="842" y="360" width="8" height="52" rx="4"/>
    <rect x="812" y="440" width="9" height="66" rx="4"/>
    <circle cx="808" cy="196" r="6"/>
    <circle cx="836" cy="290" r="5"/>
    <circle cx="800" cy="376" r="6"/>
    <circle cx="848" cy="428" r="5"/>
    <circle cx="818" cy="522" r="6"/>
  </g>
  <!-- faucet suggestion -->
  <g fill="#6B4B2A">
    <rect x="700" y="88" width="130" height="22" rx="10"/>
    <rect x="800" y="100" width="26" height="34" rx="6"/>
  </g>
  <!-- joyful silhouette -->
  <g fill="#4A2C12">
    <circle cx="880" cy="330" r="58"/>
    <path d="M800 700 L806 470 Q812 410 880 404 Q948 410 954 470 L960 700 Z"/>
    <path d="M842 420 Q790 380 776 330 L806 318 Q822 366 862 402 Z"/>
  </g>
  <rect y="620" width="1200" height="80" fill="#7A4E27"/>
</svg>
